<svg width="48" height="43" viewBox="0 0 48 43" fill="none" xmlns="http://www.w3.org/2000/svg">
<g clip-path="url(#clip0_2701_2515)">
<path d="M24.0715 42.4466C23.8259 42.4466 23.5979 42.3764 23.3874 42.2536C7.96938 32.7818 0.479614 24.0116 0.479614 15.4343C0.479614 6.45359 5.82945 0.419678 13.7928 0.419678C16.7922 0.419678 21.5808 1.87553 24.0715 4.55922C26.5622 1.87553 31.3332 0.419678 34.3502 0.419678C42.3136 0.419678 47.6634 6.45359 47.6634 15.4343C47.6634 24.415 40.1736 32.7643 24.7731 42.2536C24.5626 42.3764 24.3171 42.4466 24.089 42.4466H24.0715ZM13.7928 3.05074C7.30285 3.05074 3.11068 7.90945 3.11068 15.4343C3.11068 22.9591 10.1619 30.905 24.0715 39.5875C37.9811 30.905 45.0323 22.7837 45.0323 15.4343C45.0323 8.08485 40.8402 3.05074 34.3502 3.05074C31.1403 3.05074 26.3167 5.06789 25.2818 7.40077C24.8608 8.34796 23.2997 8.34796 22.8788 7.40077C21.8439 5.05035 17.0203 3.05074 13.8103 3.05074H13.7928Z" fill="#362FC1"/>
</g>
<defs>
<clipPath id="clip0_2701_2515">
<rect width="47.1662" height="42.0269" fill="white" transform="translate(0.479614 0.419678)"/>
</clipPath>
</defs>
</svg>
