<svg width="94" height="79" viewBox="0 0 94 79" fill="none" xmlns="http://www.w3.org/2000/svg">
<path d="M74.9165 33.7085C74.1651 32.8339 73.7369 31.5571 73.4748 30.2715C72.8282 27.0706 73.1078 23.6861 72.9068 20.3802C72.4787 13.1914 69.5078 6.11623 64.7194 2.7317C61.3641 0.352907 57.4059 -0.101862 53.6136 0.300433C48.8777 0.79893 44.1593 2.60926 40.2447 6.19494C35.7797 10.2791 32.5641 16.4447 28.0554 20.4327C21.5107 26.231 12.9739 26.5808 6.71755 32.9913C0.557364 39.3056 -1.74943 51.4357 1.41367 60.8809C4.39328 69.7664 10.3875 76.7104 29.3573 74.8738C40.8301 73.7631 52.3554 73.2471 63.8369 74.1479C68.1709 74.489 72.5398 74.9962 76.8389 74.1654C81.4524 73.2734 94 69.7839 94 58.7207C94 53.0711 92.8116 47.439 89.7796 43.3373C86.3456 38.6934 81.5573 37.2329 77.066 35.134C76.3495 34.8017 75.6155 34.4518 75.0214 33.8134C74.9864 33.7784 74.9515 33.7434 74.9253 33.6997L74.9165 33.7085Z" fill="#E6B0B3" fill-opacity="0.48"/>
<path d="M48.06 77.8303C66.0203 77.8303 80.58 63.0915 80.58 44.9103C80.58 26.729 66.0203 11.9902 48.06 11.9902C30.0997 11.9902 15.54 26.729 15.54 44.9103C15.54 63.0915 30.0997 77.8303 48.06 77.8303Z" fill="white" stroke="#232D4F" stroke-linecap="round" stroke-linejoin="round"/>
<path d="M55.9102 12.9603C70.0802 16.5203 80.5802 29.4703 80.5802 44.9203C80.5802 54.6303 76.4302 63.3603 69.8202 69.3803" stroke="#2CB9EE" stroke-width="7" stroke-linecap="round" stroke-linejoin="round"/>
<path d="M17.2399 19.3503C14.7499 19.8703 13.2899 21.3203 12.8199 23.8403C12.3099 21.3403 10.8799 19.8503 8.3999 19.3903C9.4599 18.9603 10.5399 18.7003 11.3499 17.8803C12.1599 17.0603 12.4499 15.9803 12.8299 14.8803C13.3099 17.3403 14.7199 18.8703 17.2399 19.3603V19.3503Z" fill="white"/>
<path d="M17.2402 70.9602C18.5302 70.9602 19.5702 69.9102 19.5702 68.6202C19.5702 67.3302 18.5302 66.2802 17.2402 66.2802C15.9502 66.2802 14.9102 67.3302 14.9102 68.6202C14.9102 69.9102 15.9502 70.9602 17.2402 70.9602Z" stroke="white" stroke-linecap="round"/>
<path d="M75.38 13.4102C76.67 13.4102 77.71 12.3602 77.71 11.0702C77.71 9.78024 76.67 8.73024 75.38 8.73024C74.09 8.73024 73.05 9.78024 73.05 11.0702C73.05 12.3602 74.09 13.4102 75.38 13.4102Z" stroke="white" stroke-linecap="round"/>
<path d="M53.2798 24.5902C55.5298 26.8202 56.9298 29.9202 56.9298 33.3402C56.9298 40.1402 51.4098 45.6602 44.6098 45.6602C42.8198 45.6602 41.1198 45.2802 39.5898 44.5902C41.8198 46.8002 44.8798 48.1602 48.2598 48.1602C55.0598 48.1602 60.5798 42.6402 60.5798 35.8402C60.5798 30.8202 57.5798 26.5102 53.2798 24.5902Z" fill="#C1EAFA"/>
<path d="M58.6201 52.5702C53.1901 48.3502 46.0001 47.9602 40.3101 51.0002C44.6201 50.4402 49.1501 51.5402 52.8501 54.4202C55.6701 56.6102 57.6001 59.5202 58.5901 62.6802C59.3001 64.9302 61.3501 66.4902 63.7101 66.4902H65.1401C65.3201 61.2602 63.0801 56.0302 58.6301 52.5702H58.6201Z" fill="#C1EAFA"/>
<path d="M48.3602 48.5302C55.5012 48.5302 61.2902 42.7413 61.2902 35.6002C61.2902 28.4592 55.5012 22.6702 48.3602 22.6702C41.2191 22.6702 35.4302 28.4592 35.4302 35.6002C35.4302 42.7413 41.2191 48.5302 48.3602 48.5302Z" stroke="#232D4F" stroke-linecap="round" stroke-linejoin="round"/>
<path d="M65.23 65.8302C65.23 56.5202 57.68 48.9702 48.37 48.9702C39.06 48.9702 31.5 56.5202 31.5 65.8302" stroke="#232D4F" stroke-linecap="round" stroke-linejoin="round"/>
</svg>
