<svg width="65" height="45" viewBox="0 0 65 45" fill="none" xmlns="http://www.w3.org/2000/svg">
<g clip-path="url(#clip0_2701_2505)">
<path d="M62.8393 36.0095H56.6124C55.8932 36.0095 55.2969 35.4131 55.2969 34.694C55.2969 33.9748 55.8932 33.3785 56.6124 33.3785H61.5237V10.7162C61.5237 6.55912 58.2612 3.29659 54.1041 3.29659H35.2306C30.3544 3.29659 26.1271 6.87484 22.0402 10.3303C18.5146 13.3122 15.1819 16.1187 11.3405 16.9781C6.79756 17.9955 2.79834 22.8893 2.79834 27.4673V33.3609H7.60442C8.32358 33.3609 8.91995 33.9573 8.91995 34.6764C8.91995 35.3956 8.32358 35.992 7.60442 35.992H1.50035C0.781189 35.992 0.184814 35.3956 0.184814 34.6764V27.4673C0.184814 21.6614 5.04352 15.6801 10.7792 14.3997C14.0067 13.6805 17.0938 11.067 20.3563 8.29562C24.8116 4.5595 29.4072 0.665527 35.2482 0.665527H54.1217C59.6644 0.665527 64.1723 5.17342 64.1723 10.7162V34.694C64.1723 35.4131 63.576 36.0095 62.8568 36.0095H62.8393Z" fill="#362FC1"/>
<path d="M40.8085 36.0095H23.3909C22.6717 36.0095 22.0753 35.4131 22.0753 34.694C22.0753 33.9748 22.6717 33.3784 23.3909 33.3784H40.8085C41.5277 33.3784 42.124 33.9748 42.124 34.694C42.124 35.4131 41.5277 36.0095 40.8085 36.0095Z" fill="#362FC1"/>
<path d="M15.4977 44.4465C10.4986 44.4465 6.28894 40.2193 6.28894 35.2378C6.28894 30.2563 10.5162 26.0291 15.4977 26.0291C20.4792 26.0291 24.7064 30.2563 24.7064 35.2378C24.7064 40.2193 20.6546 44.4465 15.4977 44.4465ZM15.4977 28.6601C11.9194 28.6601 8.92001 31.6771 8.92001 35.2378C8.92001 38.7985 11.937 41.8154 15.4977 41.8154C19.0584 41.8154 22.0753 38.9213 22.0753 35.2378C22.0753 31.5543 19.0584 28.6601 15.4977 28.6601Z" fill="#362FC1"/>
<path d="M48.7192 44.4465C43.7202 44.4465 39.5105 40.2193 39.5105 35.2378C39.5105 30.2563 43.7377 26.0291 48.7192 26.0291C53.7007 26.0291 57.928 30.2563 57.928 35.2378C57.9981 37.6233 57.1211 39.9211 55.4372 41.64C53.7183 43.4292 51.2626 44.4465 48.7192 44.4465ZM48.7192 28.6601C45.1585 28.6601 42.1416 31.6771 42.1416 35.2378C42.1416 38.7985 45.1585 41.8154 48.7192 41.8154C50.5785 41.8154 52.2975 41.0963 53.5604 39.8158C54.7356 38.6055 55.3671 36.9918 55.3144 35.2729C55.3144 31.6595 52.2975 28.6426 48.7368 28.6426L48.7192 28.6601Z" fill="#362FC1"/>
</g>
<defs>
<clipPath id="clip0_2701_2505">
<rect width="63.97" height="43.7809" fill="white" transform="translate(0.184814 0.665527)"/>
</clipPath>
</defs>
</svg>
