<svg width="90" height="88" viewBox="0 0 90 88" fill="none" xmlns="http://www.w3.org/2000/svg">
<path d="M66.0899 2.12352C45.1399 -5.60648 52.5299 16.1935 18.6399 26.7635C-8.52012 35.2435 -0.810114 70.1835 32.3599 67.2835C52.2299 65.5535 46.3399 89.8635 61.8799 87.3135C83.1999 83.8235 76.6399 64.5835 72.4299 47.3635C69.5499 33.6035 87.7199 10.0935 66.0999 2.11352L66.0899 2.12352Z" fill="#BEDCF5"/>
<path d="M72.5101 71.9832C72.5301 73.5732 71.2701 74.8732 69.6901 74.8932L18.1201 75.6032C16.5401 75.6232 15.2401 74.3532 15.2201 72.7732V72.6332L14.5201 21.0032C14.4901 19.4132 15.7601 18.1132 17.3401 18.0932L68.5401 17.3932H68.9101C70.4901 17.3632 71.7801 18.6332 71.8101 20.2132L72.5101 71.9832Z" fill="#F8EBEB"/>
<path d="M69.2401 69.0236C69.2701 70.6036 68.0001 71.9136 66.4201 71.9336L15.2201 72.6336L14.5201 21.0036C14.4901 19.4136 15.7601 18.1136 17.3401 18.0936L27.4001 17.9536L30.8101 17.9136L60.3801 17.5036L63.7901 17.4536L68.5401 17.3936L69.2401 69.0236Z" fill="white"/>
<path d="M14.6104 32.8731L71.9503 31.8731" stroke="#252D4F" stroke-miterlimit="10" stroke-linecap="round"/>
<path d="M29.6996 40.4335L21.9696 40.6635C20.8796 40.6935 20.0196 41.6135 20.0496 42.7035L20.2796 50.4835C20.3096 51.5735 21.2296 52.4335 22.3196 52.4035L30.0496 52.1735C31.1396 52.1435 31.9996 51.2235 31.9696 50.1335L31.7396 42.3535C31.7096 41.2635 30.7896 40.4035 29.6996 40.4335Z" stroke="#252D4F" stroke-miterlimit="10"/>
<path d="M46.9203 39.6229L39.1903 39.8529C38.1003 39.8829 37.2403 40.8029 37.2703 41.8929L37.5003 49.6729C37.5303 50.7629 38.4503 51.6229 39.5403 51.5929L47.2703 51.3629C48.3603 51.3329 49.2203 50.4129 49.1903 49.3229L48.9603 41.5429C48.9303 40.4529 48.0103 39.5929 46.9203 39.6229Z" fill="#EABBBC" stroke="#252D4F" stroke-miterlimit="10"/>
<path d="M64.1605 38.8231L56.4305 39.0531C55.3405 39.0831 54.4805 39.9931 54.5105 41.0931L54.7405 48.8731C54.7705 49.9631 55.6905 50.8231 56.7805 50.7931L64.5105 50.5631C65.6005 50.5331 66.4605 49.6231 66.4305 48.5231L66.2005 40.7431C66.1705 39.6531 65.2505 38.7931 64.1605 38.8231Z" stroke="#252D4F" stroke-miterlimit="10"/>
<path d="M30.1605 57.243L22.4305 57.473C21.3405 57.503 20.4805 58.423 20.5105 59.513L20.7405 67.293C20.7705 68.383 21.6905 69.243 22.7805 69.213L30.5105 68.983C31.6005 68.953 32.4605 68.033 32.4305 66.943L32.2005 59.163C32.1705 58.073 31.2505 57.213 30.1605 57.243Z" stroke="#252D4F" stroke-miterlimit="10"/>
<path d="M47.3896 56.4435L39.6896 56.6735C38.5796 56.7035 37.6996 57.6335 37.7396 58.7435L37.9696 66.4835C37.9996 67.5735 38.9196 68.4335 40.0096 68.4035L47.7396 68.1735C48.8296 68.1435 49.6896 67.2335 49.6596 66.1335L49.4296 58.3535C49.3996 57.2635 48.4796 56.4035 47.3896 56.4335V56.4435Z" stroke="#252D4F" stroke-miterlimit="10"/>
<path d="M64.6303 55.6434L56.9003 55.8734C55.8103 55.9034 54.9503 56.8134 54.9803 57.9134L55.2103 65.6934C55.2403 66.7834 56.1603 67.6434 57.2503 67.6134L64.9803 67.3834C66.0703 67.3534 66.9303 66.4334 66.9003 65.3434L66.6703 57.5634C66.6403 56.4734 65.7203 55.6134 64.6303 55.6434Z" fill="white" stroke="#252D4F" stroke-miterlimit="10"/>
<path d="M40.8398 42.9732C41.7598 44.6132 42.4798 46.3732 42.9498 48.2032C45.4298 44.9632 47.8098 41.6332 50.0298 38.2032" stroke="#362FC1" stroke-width="2.75" stroke-linecap="round" stroke-linejoin="round"/>
<path d="M31.0904 23.4733C31.1204 23.9933 30.4304 24.4333 29.5504 24.4433H29.3204C28.4404 24.4633 27.7104 24.0533 27.6804 23.5333L27.4004 17.8633L30.8104 17.8333L31.0904 23.4833V23.4733Z" fill="#F8EBEB"/>
<path d="M64.0899 23.4732C64.1199 23.9932 63.4299 24.4332 62.5499 24.4432H62.3199C61.4399 24.4632 60.7099 24.0532 60.6799 23.5332L60.3799 17.5032L63.7899 17.4632L64.0899 23.4832V23.4732Z" fill="#F8EBEB"/>
<path d="M68.9 17.3832L17.33 18.0832C15.75 18.1032 14.49 19.4032 14.51 20.9932L15.21 72.7632C15.23 74.3532 16.53 75.6132 18.11 75.5932L69.68 74.8932C71.26 74.8732 72.52 73.5732 72.5 71.9832L71.8 20.2132C71.78 18.6232 70.48 17.3632 68.9 17.3832Z" stroke="#232D4F" stroke-linecap="round" stroke-linejoin="round"/>
<path d="M27.4401 12.4032H27.2001C26.3201 12.4232 25.6301 12.9732 25.6601 13.6332L26.0301 23.0532C26.0601 23.7132 26.7901 24.2332 27.6601 24.2132H27.9001C28.7801 24.1932 29.4701 23.6432 29.4401 22.9832L29.0701 13.5632C29.0401 12.9032 28.3101 12.3832 27.4401 12.4032Z" fill="#EABBBC" stroke="#232D4F" stroke-linecap="round" stroke-linejoin="round"/>
<path d="M60.4401 12.4032H60.2001C59.3201 12.4232 58.6301 12.9732 58.6601 13.6332L59.0301 23.0532C59.0601 23.7132 59.7901 24.2332 60.6601 24.2132H60.9001C61.7801 24.1932 62.4701 23.6432 62.4401 22.9832L62.0701 13.5632C62.0401 12.9032 61.3101 12.3832 60.4401 12.4032Z" fill="#EABBBC" stroke="#232D4F" stroke-linecap="round" stroke-linejoin="round"/>
</svg>
