<svg width="60" height="49" viewBox="0 0 60 49" fill="none" xmlns="http://www.w3.org/2000/svg">
<g clip-path="url(#clip0_2701_2535)">
<path d="M14.5307 35.65C8.33891 35.65 3.30481 30.6159 3.30481 24.4241C3.30481 18.2323 8.33891 13.1982 14.5307 13.1982C20.7225 13.1982 25.7566 18.2323 25.7566 24.4241C25.7566 30.6159 20.7225 35.65 14.5307 35.65ZM14.5307 15.8293C9.79477 15.8293 5.93588 19.6882 5.93588 24.4241C5.93588 29.16 9.79477 33.0189 14.5307 33.0189C19.2666 33.0189 23.1255 29.16 23.1255 24.4241C23.1255 19.6882 19.2666 15.8293 14.5307 15.8293Z" fill="#362FC1"/>
<path d="M27.458 48.8931C26.7388 48.8931 26.1425 48.2967 26.1425 47.5776C26.1425 41.1753 20.9329 35.9658 14.5307 35.9658C8.12842 35.9658 2.91891 41.1753 2.91891 47.5776C2.91891 48.2967 2.32253 48.8931 1.60337 48.8931C0.884217 48.8931 0.287842 48.2967 0.287842 47.5776C0.287842 39.7194 6.67256 33.3347 14.5307 33.3347C22.3888 33.3347 28.7735 39.7194 28.7735 47.5776C28.7735 48.2967 28.1771 48.8931 27.458 48.8931Z" fill="#362FC1"/>
<path d="M45.5949 22.828C39.4031 22.828 34.369 17.7939 34.369 11.6021C34.369 5.41033 39.4031 0.376221 45.5949 0.376221C51.7867 0.376221 56.8208 5.41033 56.8208 11.6021C56.8208 17.7939 51.7867 22.828 45.5949 22.828ZM45.5949 3.00729C40.859 3.00729 37.0001 6.86618 37.0001 11.6021C37.0001 16.338 40.859 20.1969 45.5949 20.1969C50.3308 20.1969 54.1897 16.338 54.1897 11.6021C54.1897 6.86618 50.3308 3.00729 45.5949 3.00729Z" fill="#362FC1"/>
<path d="M58.5222 36.0886C57.803 36.0886 57.2066 35.4923 57.2066 34.7731C57.2066 28.3709 51.9971 23.1613 45.5949 23.1613C40.3152 23.1613 35.702 26.7221 34.369 31.8263C34.1936 32.5279 33.4744 32.9489 32.7553 32.7735C32.0536 32.5981 31.6327 31.8789 31.8081 31.1598C33.4393 24.8978 39.1049 20.5303 45.5773 20.5303C53.4354 20.5303 59.8202 26.915 59.8202 34.7731C59.8202 35.4923 59.2238 36.0886 58.5046 36.0886H58.5222Z" fill="#362FC1"/>
</g>
<defs>
<clipPath id="clip0_2701_2535">
<rect width="59.5498" height="48.5169" fill="white" transform="translate(0.287842 0.376221)"/>
</clipPath>
</defs>
</svg>
