<svg width="67" height="52" viewBox="0 0 67 52" fill="none" xmlns="http://www.w3.org/2000/svg">
<g clip-path="url(#clip0_2701_2500)">
<path d="M20.7375 27.3932C24.0646 27.3932 26.7618 24.6605 26.7618 21.2895C26.7618 17.9185 24.0646 15.1858 20.7375 15.1858C17.4103 15.1858 14.7131 17.9185 14.7131 21.2895C14.7131 24.6605 17.4103 27.3932 20.7375 27.3932Z" stroke="#362FC1" stroke-width="2.5" stroke-linecap="round" stroke-linejoin="round"/>
<path d="M12.8612 35.5541C12.8612 31.1459 16.3866 27.5967 20.7152 27.5967C25.0438 27.5967 28.5691 31.1685 28.5691 35.5541" stroke="#362FC1" stroke-width="2.5" stroke-linecap="round" stroke-linejoin="round"/>
<path d="M37.2263 20.634H56.6381" stroke="#362FC1" stroke-width="2.5" stroke-linecap="round" stroke-linejoin="round"/>
<path d="M37.2263 31.3721H47.6685" stroke="#362FC1" stroke-width="2.5" stroke-linecap="round" stroke-linejoin="round"/>
<path d="M59.8288 2.14209H7.61782C4.73429 2.14209 2.39673 4.51046 2.39673 7.43198V44.4612C2.39673 47.3828 4.73429 49.7511 7.61782 49.7511H59.8288C62.7123 49.7511 65.0499 47.3828 65.0499 44.4612V7.43198C65.0499 4.51046 62.7123 2.14209 59.8288 2.14209Z" stroke="#362FC1" stroke-width="2.5" stroke-linecap="round" stroke-linejoin="round"/>
</g>
<defs>
<clipPath id="clip0_2701_2500">
<rect width="66" height="51" fill="white" transform="translate(0.723267 0.446533)"/>
</clipPath>
</defs>
</svg>
