<svg width="53" height="50" viewBox="0 0 53 50" fill="none" xmlns="http://www.w3.org/2000/svg">
<g clip-path="url(#clip0_2701_2510)">
<path d="M47.1387 49.4465H6.09407C3.11219 49.4465 0.674072 47.0084 0.674072 44.0265V15.2952C0.674072 12.3134 3.11219 9.87524 6.09407 9.87524H47.1387C50.1206 9.87524 52.5587 12.3134 52.5587 15.2952V44.0265C52.5587 47.0084 50.1206 49.4465 47.1387 49.4465ZM6.09407 12.5063C4.55051 12.5063 3.30514 13.7517 3.30514 15.2952V44.0265C3.30514 45.57 4.55051 46.8154 6.09407 46.8154H47.1387C48.6823 46.8154 49.9276 45.57 49.9276 44.0265V15.2952C49.9276 13.7517 48.6823 12.5063 47.1387 12.5063H6.09407Z" fill="#362FC1"/>
<path d="M38.9297 11.4013C38.2106 11.4013 37.6142 10.8049 37.6142 10.0857V5.98128C37.6142 4.43772 36.3688 3.19235 34.8253 3.19235H18.4074C16.8639 3.19235 15.6185 4.43772 15.6185 5.98128V10.0857C15.6185 10.8049 15.0221 11.4013 14.303 11.4013C13.5838 11.4013 12.9874 10.8049 12.9874 10.0857V5.98128C12.9874 2.9994 15.4255 0.561279 18.4074 0.561279H34.8253C37.8071 0.561279 40.2453 2.9994 40.2453 5.98128V10.0857C40.2453 10.8049 39.6489 11.4013 38.9297 11.4013Z" fill="#362FC1"/>
<path d="M22.3015 30.801C22.3015 30.801 22.2313 30.801 22.1787 30.801C13.9522 30.0819 6.49754 27.4157 1.18279 23.2586C0.603953 22.8201 0.516251 21.9782 0.954762 21.4169C1.39327 20.8381 2.21767 20.7328 2.79651 21.1889C7.70783 25.0302 14.6714 27.5034 22.4067 28.1875C23.1259 28.2577 23.6696 28.8891 23.5995 29.6083C23.5469 30.2924 22.968 30.8186 22.2839 30.8186L22.3015 30.801Z" fill="#362FC1"/>
<path d="M26.6164 37.063C25.2132 37.063 23.8626 36.5192 22.8452 35.5194C21.8103 34.4845 21.249 33.1339 21.249 31.6956V25.6441C21.249 24.925 21.8454 24.3286 22.5646 24.3286H30.6682C31.3874 24.3286 31.9838 24.925 31.9838 25.6441V31.6956C31.9838 34.6599 29.5807 37.063 26.6164 37.063ZM23.8801 26.9597V31.6956C23.8801 32.4323 24.1607 33.1164 24.687 33.6426C25.2132 34.1513 25.8972 34.4319 26.6164 34.4319C28.1249 34.4319 29.3527 33.2041 29.3527 31.6956V26.9597H23.8801Z" fill="#362FC1"/>
<path d="M30.9314 30.801C30.2648 30.801 29.686 30.2923 29.6158 29.5907C29.5457 28.8715 30.0894 28.2225 30.8086 28.1699C38.5264 27.5034 45.4899 25.0126 50.4188 21.1713C50.9976 20.7152 51.822 20.8205 52.2606 21.3993C52.6991 21.9782 52.6114 22.8026 52.0325 23.2411C46.7178 27.3981 39.2631 30.0643 31.0366 30.7835C31.0015 30.7835 30.9665 30.7835 30.9138 30.7835L30.9314 30.801Z" fill="#362FC1"/>
</g>
<defs>
<clipPath id="clip0_2701_2510">
<rect width="51.8846" height="48.8852" fill="white" transform="translate(0.674072 0.561279)"/>
</clipPath>
</defs>
</svg>
