<svg width="40" height="49" viewBox="0 0 40 49" fill="none" xmlns="http://www.w3.org/2000/svg">
<g clip-path="url(#clip0_2701_2525)">
<path d="M33.6497 48.8931H6.70755C3.217 48.8931 0.35791 46.0516 0.35791 42.5435V6.63821C0.35791 3.13013 3.19946 0.288574 6.70755 0.288574H26.5633C26.9141 0.288574 27.2649 0.428898 27.5105 0.692004L39.631 13.1457C39.8765 13.3913 39.9993 13.7246 39.9993 14.0578V42.5435C39.9993 46.034 37.1578 48.8931 33.6497 48.8931ZM6.70755 2.91964C4.65532 2.91964 2.98898 4.58598 2.98898 6.63821V42.5435C2.98898 44.5957 4.65532 46.2621 6.70755 46.2621H33.6497C35.7019 46.2621 37.3682 44.5957 37.3682 42.5435V14.584L26.002 2.91964H6.70755Z" fill="#362FC1"/>
<path d="M38.6662 15.3734H26.5458C25.8266 15.3734 25.2302 14.7771 25.2302 14.0579V1.76207C25.2302 1.04291 25.8266 0.446533 26.5458 0.446533C27.2649 0.446533 27.8613 1.04291 27.8613 1.76207V12.7248H38.6662C39.3854 12.7248 39.9817 13.3212 39.9817 14.0404C39.9817 14.7595 39.3854 15.3559 38.6662 15.3559V15.3734Z" fill="#362FC1"/>
<path d="M30.0188 29.195H10.1631C9.44391 29.195 8.84753 28.5987 8.84753 27.8795C8.84753 27.1603 9.44391 26.564 10.1631 26.564H30.0188C30.738 26.564 31.3344 27.1603 31.3344 27.8795C31.3344 28.5987 30.738 29.195 30.0188 29.195Z" fill="#362FC1"/>
<path d="M17.4248 21.1792H10.1631C9.44391 21.1792 8.84753 20.5828 8.84753 19.8636C8.84753 19.1445 9.44391 18.5481 10.1631 18.5481H17.4248C18.144 18.5481 18.7403 19.1445 18.7403 19.8636C18.7403 20.5828 18.144 21.1792 17.4248 21.1792Z" fill="#362FC1"/>
<path d="M30.1767 37.2111H10.3209C9.60175 37.2111 9.00537 36.6148 9.00537 35.8956C9.00537 35.1765 9.60175 34.5801 10.3209 34.5801H30.1767C30.8958 34.5801 31.4922 35.1765 31.4922 35.8956C31.4922 36.6148 30.8958 37.2111 30.1767 37.2111Z" fill="#362FC1"/>
</g>
<defs>
<clipPath id="clip0_2701_2525">
<rect width="39.6239" height="48.6046" fill="white" transform="translate(0.35791 0.288574)"/>
</clipPath>
</defs>
</svg>
