<svg width="37" height="56" viewBox="0 0 37 56" fill="none" xmlns="http://www.w3.org/2000/svg">
<g clip-path="url(#clip0_2701_2530)">
<path d="M18.6426 55.893C13.8014 55.893 9.52155 53.1918 8.01307 49.1575C7.96045 48.9996 6.06609 42.7026 1.80376 42.422C1.11968 42.3693 0.575928 41.808 0.575928 41.1064V1.95616C0.575928 1.237 1.1723 0.640625 1.89146 0.640625H5.24169C7.45178 0.640625 9.50401 1.50011 10.7143 2.95596C11.1353 3.46464 11.4685 4.04347 11.6966 4.63985L13.0296 8.18302C13.8014 10.2177 16.0291 11.5859 18.6075 11.5859C21.1859 11.5859 23.4136 10.2177 24.1854 8.18302L25.5184 4.63985C25.7465 4.02593 26.0797 3.46464 26.5007 2.95596C27.711 1.50011 29.7632 0.640625 31.9733 0.640625H35.3235C36.0427 0.640625 36.6391 1.237 36.6391 1.95616V41.1064C36.6391 41.6853 36.2707 42.1764 35.727 42.3518L34.8324 42.65C34.7096 42.6851 34.5693 42.7201 34.429 42.7201C32.0084 42.7201 29.8158 47.5087 29.237 49.175C27.6935 53.2093 23.4311 55.893 18.6075 55.893H18.6426ZM3.20699 39.9838C8.39896 41.2467 10.4161 48.0349 10.5038 48.3331C11.5913 51.2448 14.8889 53.262 18.625 53.262C22.3612 53.262 25.6412 51.2623 26.7813 48.2805C27.0445 47.5087 29.5878 40.5451 34.0256 40.1066V3.27169H31.9909C30.5701 3.27169 29.237 3.7979 28.5354 4.63985C28.2898 4.92049 28.1144 5.23622 27.9916 5.56949L26.6586 9.11266C25.5184 12.1647 22.2735 14.2169 18.625 14.2169C14.9766 14.2169 11.7316 12.1647 10.5915 9.11266L9.25845 5.56949C9.13566 5.23622 8.96026 4.92049 8.71469 4.63985C7.99553 3.7979 6.68 3.27169 5.25923 3.27169H3.22453V39.9838H3.20699Z" fill="#362FC1"/>
<path d="M13.8715 35.1952C10.9247 35.1952 8.50415 32.7921 8.50415 29.8454V25.6006C8.50415 22.6538 10.9072 20.2507 13.8715 20.2507C16.8359 20.2507 19.2214 22.6538 19.2214 25.6006V29.8454C19.2214 32.7921 16.8183 35.1952 13.8715 35.1952ZM13.8715 22.8818C12.363 22.8818 11.1352 24.1096 11.1352 25.6006V29.8454C11.1352 31.3538 12.363 32.5641 13.8715 32.5641C15.38 32.5641 16.5903 31.3363 16.5903 29.8454V25.6006C16.5903 24.0921 15.3625 22.8818 13.8715 22.8818Z" fill="#362FC1"/>
<path d="M25.378 35.1952C24.6589 35.1952 24.0625 34.5989 24.0625 33.8797V24.7236C23.5187 25.0744 22.7996 24.9692 22.3786 24.478C21.905 23.9343 21.9576 23.0923 22.5014 22.6187L24.5185 20.8296C24.9044 20.4788 25.4657 20.4086 25.9218 20.6191C26.3954 20.8296 26.6936 21.3032 26.6936 21.8119V33.8622C26.6936 34.5813 26.0972 35.1777 25.378 35.1777V35.1952Z" fill="#362FC1"/>
</g>
<defs>
<clipPath id="clip0_2701_2530">
<rect width="36.0807" height="55.2524" fill="white" transform="translate(0.575928 0.640625)"/>
</clipPath>
</defs>
</svg>
