<svg width="55" height="43" viewBox="0 0 55 43" fill="none" xmlns="http://www.w3.org/2000/svg">
<g clip-path="url(#clip0_2701_2520)">
<path d="M49.2308 2.19531H6.21581C3.84015 2.19531 1.91431 4.15024 1.91431 6.56176V37.1269C1.91431 39.5384 3.84015 41.4934 6.21581 41.4934H49.2308C51.6065 41.4934 53.5323 39.5384 53.5323 37.1269V6.56176C53.5323 4.15024 51.6065 2.19531 49.2308 2.19531Z" stroke="#362FC1" stroke-width="2.5" stroke-linecap="round" stroke-linejoin="round"/>
<path d="M22.8703 25.8003C22.4292 31.0811 32.7417 31.417 32.613 26.0989C32.613 21.4898 25.6645 22.4975 23.6975 19.6052C22.999 18.5789 23.0542 16.9741 23.6975 15.9291C24.8189 14.1005 27.5579 13.9325 29.4329 14.4177C31.1424 14.8655 32.5763 16.1531 32.4844 18.0564" stroke="black" stroke-width="2.5"/>
<path d="M22.8703 25.8003C22.4292 31.0811 32.7417 31.417 32.613 26.0989C32.613 21.4898 25.6645 22.4975 23.6975 19.6052C22.999 18.5789 23.0542 16.9741 23.6975 15.9291C24.8189 14.1005 27.5579 13.9325 29.4329 14.4177C31.1424 14.8655 32.5763 16.1531 32.4844 18.0564" stroke="#362FC1" stroke-width="2.5" stroke-linecap="round" stroke-linejoin="round"/>
<path d="M27.7234 9.71533V33.9734" stroke="#362FC1" stroke-width="2.5" stroke-linecap="round" stroke-linejoin="round"/>
</g>
<defs>
<clipPath id="clip0_2701_2520">
<rect width="54.3754" height="42.0971" fill="white" transform="translate(0.535645 0.795898)"/>
</clipPath>
</defs>
</svg>
