<svg width="146" height="27" viewBox="0 0 146 27" fill="none" xmlns="http://www.w3.org/2000/svg">
<path d="M19.35 6.96012C20.19 7.86012 20.61 9.11012 20.61 10.7101V20.3001C20.61 20.4001 20.58 20.4801 20.51 20.5501C20.44 20.6201 20.36 20.6501 20.26 20.6501H17.62C17.52 20.6501 17.44 20.6201 17.37 20.5501C17.3 20.4801 17.27 20.4001 17.27 20.3001V11.4001C17.27 10.5101 17.03 9.81012 16.56 9.28012C16.09 8.76012 15.45 8.50012 14.66 8.50012C13.87 8.50012 13.22 8.76012 12.72 9.28012C12.22 9.80012 11.97 10.5001 11.97 11.3701V20.3001C11.97 20.4001 11.94 20.4801 11.87 20.5501C11.8 20.6201 11.72 20.6501 11.62 20.6501H8.98C8.88 20.6501 8.8 20.6201 8.73 20.5501C8.66 20.4801 8.63 20.4001 8.63 20.3001V11.4001C8.63 10.5101 8.39 9.81012 7.91 9.28012C7.43 8.76012 6.79 8.50012 6 8.50012C5.27 8.50012 4.66 8.71012 4.19 9.14012C3.72 9.57012 3.44 10.1501 3.36 10.8801V20.3001C3.36 20.4001 3.33 20.4801 3.26 20.5501C3.19 20.6201 3.11 20.6501 3.01 20.6501H0.35C0.25 20.6501 0.17 20.6201 0.1 20.5501C0.03 20.4801 0 20.4001 0 20.3001V6.19012C0 6.09012 0.03 6.01012 0.1 5.94012C0.17 5.87012 0.25 5.84012 0.35 5.84012H3.02C3.12 5.84012 3.2 5.87012 3.27 5.94012C3.34 6.01012 3.37 6.09012 3.37 6.19012V7.15012C3.37 7.21012 3.39 7.25012 3.43 7.27012C3.47 7.29012 3.51 7.27012 3.55 7.21012C3.97 6.67012 4.5 6.27012 5.13 6.01012C5.76 5.75012 6.46 5.62012 7.23 5.62012C8.18 5.62012 9.01 5.81012 9.72 6.20012C10.43 6.59012 10.99 7.15012 11.37 7.88012C11.43 7.96012 11.5 7.96012 11.57 7.88012C11.99 7.11012 12.58 6.54012 13.34 6.17012C14.09 5.80012 14.93 5.62012 15.86 5.62012C17.35 5.62012 18.51 6.07012 19.35 6.97012V6.96012Z" fill="#73A8DC"/>
<path d="M23.47 20.5598C23.4 20.4898 23.37 20.4098 23.37 20.3098V6.16982C23.37 6.06982 23.4 5.98982 23.47 5.91982C23.54 5.84982 23.62 5.81982 23.72 5.81982H26.39C26.49 5.81982 26.57 5.84982 26.64 5.91982C26.71 5.98982 26.74 6.06982 26.74 6.16982V20.3198C26.74 20.4198 26.71 20.4998 26.64 20.5698C26.57 20.6398 26.49 20.6698 26.39 20.6698H23.72C23.62 20.6698 23.54 20.6398 23.47 20.5698V20.5598Z" fill="#73A8DC"/>
<path d="M25.05 3.82C26.1049 3.82 26.96 2.96486 26.96 1.91C26.96 0.855136 26.1049 0 25.05 0C23.9952 0 23.14 0.855136 23.14 1.91C23.14 2.96486 23.9952 3.82 25.05 3.82Z" fill="#73A8DC"/>
<path d="M43.2 20.3701L42.24 17.2701C42.2 17.1901 42.15 17.1501 42.09 17.1501H34.44C34.38 17.1501 34.33 17.1901 34.3 17.2701L33.34 20.3701C33.28 20.5601 33.16 20.6601 32.96 20.6601H30.06C29.94 20.6601 29.86 20.6301 29.8 20.5601C29.74 20.4901 29.73 20.3901 29.77 20.2601L36.07 0.660117C36.13 0.470117 36.25 0.370117 36.45 0.370117H40.07C40.26 0.370117 40.39 0.470117 40.45 0.660117L46.77 20.2601C46.77 20.2601 46.8 20.3501 46.8 20.4001C46.8 20.5701 46.69 20.6601 46.48 20.6601H43.58C43.39 20.6601 43.26 20.5601 43.2 20.3701ZM35.32 14.5101H41.2C41.32 14.5101 41.35 14.4501 41.32 14.3401L38.33 4.63012C38.31 4.55012 38.28 4.51012 38.24 4.51012C38.2 4.51012 38.17 4.55012 38.15 4.63012L35.19 14.3401C35.17 14.4601 35.21 14.5101 35.31 14.5101H35.32Z" fill="white"/>
<path d="M57.28 6.25992C57.28 6.25992 57.28 6.23992 57.27 6.22992C57.22 6.11992 57.13 6.04992 57.02 5.99992C56.91 5.94992 56.8 5.89992 56.68 5.85992C56.44 5.77992 56.18 5.71992 55.93 5.68992C55.78 5.66992 55.64 5.66992 55.49 5.66992C54.05 5.66992 52.91 6.29992 52.11 7.54992C52.07 7.60992 52.03 7.62992 52 7.61992C51.98 7.61992 51.96 7.56992 51.96 7.48992V6.18992C51.96 6.09992 51.93 6.00992 51.86 5.94992C51.79 5.87992 51.71 5.83992 51.61 5.83992H48.94C48.84 5.83992 48.76 5.87992 48.69 5.94992C48.63 6.00992 48.59 6.09992 48.59 6.18992V20.3099C48.59 20.3999 48.63 20.4899 48.69 20.5499C48.76 20.6199 48.84 20.6599 48.94 20.6599H51.61C51.71 20.6599 51.79 20.6199 51.86 20.5499C51.93 20.4899 51.96 20.3999 51.96 20.3099V12.0999C51.96 11.2499 52.23 10.5699 52.78 10.0299C53.32 9.49992 53.99 9.20992 54.81 9.16992C55.14 9.16992 55.5 9.16992 56.09 9.21992C56.25 9.22992 56.28 9.21992 56.37 9.17992C56.45 9.13992 56.5 9.06992 56.53 8.98992L56.56 8.87992L56.65 8.58992L56.77 8.17992L56.91 7.71992L57.05 7.25992L57.17 6.85992L57.25 6.58992C57.28 6.47992 57.32 6.36992 57.29 6.25992H57.28Z" fill="white"/>
<path d="M67.25 5.9501C67.32 5.8801 67.4 5.8501 67.5 5.8501H70.17C70.27 5.8501 70.35 5.8801 70.42 5.9501C70.49 6.0201 70.52 6.1001 70.52 6.2001V19.6801C70.52 22.1001 69.83 23.8201 68.45 24.8501C67.07 25.8801 65.26 26.4001 63.01 26.4001C62.41 26.4001 61.82 26.3701 61.24 26.3101C61.03 26.2901 60.92 26.1701 60.92 25.9301L61.01 23.5501C61.01 23.3401 61.14 23.2301 61.42 23.2301C61.98 23.2901 62.48 23.3201 62.93 23.3201C64.38 23.3201 65.45 23.0301 66.13 22.4601C66.82 21.8901 67.16 20.9301 67.16 19.5801V19.3501C67.16 19.2901 67.14 19.2601 67.1 19.2501C67.06 19.2501 67.02 19.2501 66.98 19.2901C66.19 20.1401 65.07 20.5701 63.62 20.5701C62.36 20.5701 61.21 20.2501 60.17 19.6101C59.13 18.9701 58.4 18.0001 58 16.6801C57.75 15.7701 57.62 14.6001 57.62 13.1701C57.62 11.5701 57.77 10.3401 58.08 9.4901C58.47 8.3101 59.13 7.3701 60.08 6.6601C61.03 5.9501 62.14 5.6001 63.41 5.6001C64.94 5.6001 66.13 6.0401 66.98 6.9301C67.02 6.9901 67.06 7.0101 67.1 6.9901C67.14 6.9701 67.16 6.9301 67.16 6.8701V6.1701C67.16 6.0701 67.19 5.9901 67.26 5.9201L67.25 5.9501ZM67.1 14.7901C67.13 14.4501 67.14 13.9101 67.14 13.1501C67.14 12.3901 67.13 11.8901 67.1 11.5701C67.07 11.2501 67.01 10.9401 66.91 10.6301C66.75 9.9901 66.44 9.4801 65.97 9.0901C65.5 8.7001 64.89 8.5101 64.16 8.5101C63.46 8.5101 62.87 8.7001 62.39 9.0901C61.91 9.4801 61.56 9.9901 61.35 10.6301C61.12 11.1701 61 12.0201 61 13.1801C61 14.3401 61.1 15.2201 61.29 15.7001C61.48 16.3201 61.84 16.8301 62.35 17.2201C62.86 17.6201 63.48 17.8101 64.19 17.8101C64.94 17.8101 65.55 17.6201 66.02 17.2301C66.48 16.8401 66.79 16.3401 66.95 15.7201C67.03 15.4301 67.08 15.1201 67.11 14.7801L67.1 14.7901Z" fill="white"/>
<path d="M85.73 13.2099L85.7 14.1099C85.7 14.3399 85.58 14.4599 85.35 14.4599H76.28C76.18 14.4599 76.14 14.5099 76.14 14.6099C76.2 15.2499 76.28 15.6799 76.4 15.9099C76.86 17.2999 77.99 18.0099 79.79 18.0299C81.1 18.0299 82.15 17.4899 82.92 16.4099C83 16.2899 83.09 16.2399 83.21 16.2399C83.29 16.2399 83.35 16.2699 83.41 16.3299L85.21 17.8099C85.38 17.9499 85.41 18.0999 85.3 18.2699C84.7 19.1199 83.9 19.7799 82.91 20.2399C81.91 20.6999 80.81 20.9399 79.59 20.9399C78.08 20.9399 76.8 20.5999 75.75 19.9299C74.7 19.2499 73.93 18.3099 73.45 17.0899C73.01 16.0499 72.78 14.5999 72.78 12.7399C72.78 11.6199 72.9 10.7099 73.13 10.0199C73.52 8.6699 74.25 7.5999 75.32 6.8199C76.39 6.0399 77.68 5.6499 79.19 5.6499C83 5.6499 85.14 7.6399 85.62 11.6199C85.7 12.0999 85.74 12.6399 85.74 13.2399L85.73 13.2099ZM77.39 9.0499C76.92 9.4099 76.58 9.9099 76.39 10.5399C76.27 10.8699 76.2 11.2899 76.16 11.8199C76.12 11.9199 76.16 11.9699 76.28 11.9699H82.16C82.26 11.9699 82.3 11.9199 82.3 11.8199C82.26 11.3399 82.2 10.9699 82.13 10.7199C81.96 10.0199 81.61 9.4799 81.1 9.0999C80.59 8.7099 79.95 8.5199 79.17 8.5199C78.45 8.5199 77.86 8.6999 77.39 9.0599V9.0499Z" fill="white"/>
<path d="M98.7799 7.00986C99.7199 7.93986 100.19 9.19986 100.19 10.8099V20.3199C100.19 20.4199 100.16 20.4999 100.09 20.5699C100.02 20.6399 99.9399 20.6699 99.8399 20.6699H97.1699C97.0699 20.6699 96.9899 20.6399 96.9199 20.5699C96.8499 20.4999 96.8199 20.4199 96.8199 20.3199V11.5099C96.8199 10.6199 96.5699 9.89986 96.0699 9.34986C95.5699 8.79986 94.8999 8.51986 94.0699 8.51986C93.2399 8.51986 92.5699 8.78986 92.0599 9.32986C91.5499 9.86986 91.2899 10.5899 91.2899 11.4799V20.3199C91.2899 20.4199 91.2599 20.4999 91.1899 20.5699C91.1199 20.6399 91.0399 20.6699 90.9399 20.6699H88.2699C88.1699 20.6699 88.0899 20.6399 88.0199 20.5699C87.9499 20.4999 87.9199 20.4199 87.9199 20.3199V6.18986C87.9199 6.08986 87.9499 6.00986 88.0199 5.93986C88.0899 5.86986 88.1699 5.83986 88.2699 5.83986H90.9399C91.0399 5.83986 91.1199 5.86986 91.1899 5.93986C91.2599 6.00986 91.2899 6.08986 91.2899 6.18986V7.11986C91.2899 7.17986 91.3099 7.21986 91.3499 7.23986C91.3899 7.25986 91.4199 7.23986 91.4399 7.17986C92.2299 6.13986 93.4299 5.60986 95.0299 5.60986C96.6299 5.60986 97.8499 6.06986 98.7799 6.99986V7.00986Z" fill="white"/>
<path d="M110.58 8.46996C110.51 8.53996 110.43 8.56996 110.33 8.56996H107.37C107.27 8.56996 107.23 8.61996 107.23 8.70996V15.7C107.23 16.43 107.39 16.97 107.71 17.29C108.03 17.61 108.54 17.78 109.23 17.78H110.1C110.2 17.78 110.28 17.81 110.35 17.88C110.42 17.95 110.45 18.03 110.45 18.13V20.3C110.45 20.51 110.33 20.64 110.1 20.68L108.59 20.71C107.06 20.71 105.92 20.45 105.17 19.93C104.42 19.41 104.03 18.42 104.01 16.97V8.70996C104.01 8.60996 103.96 8.56996 103.86 8.56996H102.21C102.11 8.56996 102.03 8.53996 101.96 8.46996C101.89 8.39996 101.86 8.31996 101.86 8.21996V6.18996C101.86 6.08996 101.89 6.00996 101.96 5.93996C102.03 5.86996 102.11 5.83996 102.21 5.83996H103.86C103.96 5.83996 104.01 5.78996 104.01 5.69996V2.30996C104.01 2.20996 104.04 2.12996 104.11 2.05996C104.18 1.98996 104.26 1.95996 104.36 1.95996H106.88C106.98 1.95996 107.06 1.98996 107.13 2.05996C107.2 2.12996 107.23 2.20996 107.23 2.30996V5.69996C107.23 5.79996 107.28 5.83996 107.37 5.83996H110.33C110.43 5.83996 110.51 5.86996 110.58 5.93996C110.65 6.00996 110.68 6.08996 110.68 6.18996V8.21996C110.68 8.31996 110.65 8.39996 110.58 8.46996Z" fill="white"/>
<path d="M113.07 20.5598C113 20.4898 112.97 20.4098 112.97 20.3098V6.16982C112.97 6.06982 113 5.98982 113.07 5.91982C113.14 5.84982 113.22 5.81982 113.32 5.81982H115.99C116.09 5.81982 116.17 5.84982 116.24 5.91982C116.31 5.98982 116.34 6.06982 116.34 6.16982V20.3198C116.34 20.4198 116.31 20.4998 116.24 20.5698C116.17 20.6398 116.09 20.6698 115.99 20.6698H113.32C113.22 20.6698 113.14 20.6398 113.07 20.5698V20.5598Z" fill="white"/>
<path d="M130.18 7.00986C131.12 7.93986 131.59 9.19986 131.59 10.8099V20.3199C131.59 20.4199 131.56 20.4999 131.49 20.5699C131.42 20.6399 131.34 20.6699 131.24 20.6699H128.57C128.47 20.6699 128.39 20.6399 128.32 20.5699C128.25 20.4999 128.22 20.4199 128.22 20.3199V11.5099C128.22 10.6199 127.97 9.89986 127.47 9.34986C126.97 8.79986 126.3 8.51986 125.47 8.51986C124.64 8.51986 123.97 8.78986 123.46 9.32986C122.95 9.86986 122.69 10.5899 122.69 11.4799V20.3199C122.69 20.4199 122.66 20.4999 122.59 20.5699C122.52 20.6399 122.44 20.6699 122.34 20.6699H119.67C119.57 20.6699 119.49 20.6399 119.42 20.5699C119.35 20.4999 119.32 20.4199 119.32 20.3199V6.18986C119.32 6.08986 119.35 6.00986 119.42 5.93986C119.49 5.86986 119.57 5.83986 119.67 5.83986H122.34C122.44 5.83986 122.52 5.86986 122.59 5.93986C122.66 6.00986 122.69 6.08986 122.69 6.18986V7.11986C122.69 7.17986 122.71 7.21986 122.75 7.23986C122.79 7.25986 122.82 7.23986 122.84 7.17986C123.63 6.13986 124.83 5.60986 126.43 5.60986C128.03 5.60986 129.25 6.06986 130.18 6.99986V7.00986Z" fill="white"/>
<path d="M143.09 6.25012C144.02 6.68012 144.73 7.26012 145.24 8.00012C145.75 8.74012 145.99 9.59012 145.99 10.5401V20.3101C145.99 20.4101 145.96 20.4901 145.89 20.5601C145.82 20.6301 145.74 20.6601 145.64 20.6601H142.97C142.87 20.6601 142.79 20.6301 142.72 20.5601C142.65 20.4901 142.62 20.4101 142.62 20.3101V19.3801C142.62 19.3201 142.6 19.2901 142.56 19.2801C142.52 19.2801 142.48 19.2801 142.44 19.3201C141.49 20.3601 140.12 20.8901 138.32 20.8901C136.87 20.8901 135.68 20.5201 134.74 19.7901C133.8 19.0601 133.33 17.9601 133.33 16.5101C133.33 15.0601 133.86 13.8301 134.91 12.9901C135.96 12.1501 137.45 11.7301 139.36 11.7301H142.46C142.56 11.7301 142.6 11.6801 142.6 11.5901V10.8901C142.6 10.1401 142.38 9.55012 141.93 9.14012C141.49 8.72012 140.82 8.52012 139.93 8.52012C139.2 8.52012 138.6 8.65012 138.15 8.91012C137.7 9.17012 137.41 9.53012 137.29 10.0001C137.23 10.2301 137.1 10.3301 136.88 10.2901L134.07 9.94012C133.97 9.92012 133.89 9.89012 133.82 9.84012C133.75 9.79012 133.73 9.73012 133.75 9.65012C133.9 8.47012 134.54 7.50012 135.65 6.75012C136.76 6.00012 138.16 5.62012 139.84 5.62012C141.06 5.62012 142.13 5.83012 143.06 6.26012L143.09 6.25012ZM141.61 17.4701C142.29 16.9701 142.62 16.3301 142.62 15.5601V14.2001C142.62 14.1001 142.57 14.0501 142.48 14.0501H140.04C139.02 14.0501 138.21 14.2401 137.62 14.6301C137.03 15.0201 136.74 15.5701 136.74 16.2801C136.74 16.9001 136.97 17.3801 137.42 17.7201C137.87 18.0601 138.46 18.2301 139.17 18.2301C140.12 18.2301 140.93 17.9801 141.6 17.4801L141.61 17.4701Z" fill="white"/>
<path d="M114.71 3.82C115.765 3.82 116.62 2.96486 116.62 1.91C116.62 0.855136 115.765 0 114.71 0C113.655 0 112.8 0.855136 112.8 1.91C112.8 2.96486 113.655 3.82 114.71 3.82Z" fill="white"/>
</svg>
