<svg width="34" height="52" viewBox="0 0 34 52" fill="none" xmlns="http://www.w3.org/2000/svg">
<g clip-path="url(#clip0_2701_2186)">
<path d="M32.641 8.89619V37.8194L31.8048 38.0865C28.1788 38.1075 25.8318 44.9097 25.8318 44.9097C24.595 48.1421 21.0745 50.3346 17.1113 50.3346C13.1269 50.3346 9.59936 48.1281 8.37666 44.8746C8.37666 44.8746 6.4372 38.1356 1.54639 37.8194V1.41943H4.65936C6.27558 1.41943 7.87071 2.0097 8.81233 3.13403C9.12152 3.49943 9.36044 3.907 9.52909 4.3497L10.7729 7.65241C11.6583 10.0135 14.2161 11.6086 17.0972 11.6086C19.9853 11.6086 22.5361 10.0135 23.4215 7.65241L24.6653 4.3497C24.834 3.907 25.0729 3.49943 25.3821 3.13403" stroke="#362FC1" stroke-width="3" stroke-linecap="round" stroke-linejoin="round"/>
<path d="M16.4437 23.4069C16.4437 21.3306 14.7605 19.6475 12.6842 19.6475C10.6079 19.6475 8.92477 21.3306 8.92477 23.4069V27.3491C8.92477 29.4254 10.6079 31.1085 12.6842 31.1085C14.7605 31.1085 16.4437 29.4254 16.4437 27.3491V23.4069Z" stroke="#362FC1" stroke-width="3" stroke-linecap="round" stroke-linejoin="round"/>
<path d="M23.3723 31.1014V19.8933L21.4961 21.5517" stroke="#362FC1" stroke-width="3" stroke-linecap="round" stroke-linejoin="round"/>
<path d="M1.5464 8.89619V37.8194L2.38262 38.0865C6.00856 38.1075 8.35559 44.9097 8.35559 44.9097C9.59234 48.1421 13.1129 50.3346 17.0761 50.3346C21.0605 50.3346 24.588 48.1281 25.8107 44.8746C25.8107 44.8746 27.7502 38.1356 32.641 37.8194V1.41943H29.528C27.9118 1.41943 26.3167 2.0097 25.375 3.13403C25.0659 3.49943 24.8269 3.907 24.6583 4.3497L23.4145 7.65241C22.5291 10.0135 19.9713 11.6086 17.0902 11.6086C14.2021 11.6086 11.6513 10.0135 10.7659 7.65241L9.52207 4.3497C9.35342 3.907 9.11451 3.49943 8.80532 3.13403" stroke="#362FC1" stroke-width="3" stroke-linecap="round" stroke-linejoin="round"/>
</g>
<defs>
<clipPath id="clip0_2701_2186">
<rect width="33.7297" height="52" fill="white" transform="translate(0.0250244)"/>
</clipPath>
</defs>
</svg>
